PathFileType	4	(X/Y/Z)	2014001\dynamic\2014001_C1_04.trc
DataRate	CameraRate	NumFrames	NumMarkers	Units	OrigDataRate	OrigDataStartFrame	OrigNumFrames
100.000000	100.000000	4	52	mm	100.000000	0	569
Frame#	Time	L_IAS			L_IPS			R_IPS			R_IAS			L_FTC			L_FLE			L_FME			L_FAX			L_TTC			L_FAL			L_TAM			L_FCC			L_FM1			L_FM2			L_FM5			R_FTC			R_FLE			R_FME			R_FAX			R_TTC			R_FAL			R_TAM			R_FCC			R_FM1			R_FM2			R_FM5			CV7			TV10			SXS			SJN			L_SIA			L_SRS			L_SAA			L_SAE			L_HLE			L_HME			L_UOA			L_RSP			L_UHE			L_HM2			L_HM5			R_SIA			R_SRS			R_SAA			R_SAE			R_HLE			R_HME			R_UOA			R_RSP			R_UHE			R_HM2			R_HM5			
		X1	Y1	Z1	X2	Y2	Z2	X3	Y3	Z3	X4	Y4	Z4	X5	Y5	Z5	X6	Y6	Z6	X7	Y7	Z7	X8	Y8	Z8	X9	Y9	Z9	X10	Y10	Z10	X11	Y11	Z11	X12	Y12	Z12	X13	Y13	Z13	X14	Y14	Z14	X15	Y15	Z15	X16	Y16	Z16	X17	Y17	Z17	X18	Y18	Z18	X19	Y19	Z19	X20	Y20	Z20	X21	Y21	Z21	X22	Y22	Z22	X23	Y23	Z23	X24	Y24	Z24	X25	Y25	Z25	X26	Y26	Z26	X27	Y27	Z27	X28	Y28	Z28	X29	Y29	Z29	X30	Y30	Z30	X31	Y31	Z31	X32	Y32	Z32	X33	Y33	Z33	X34	Y34	Z34	X35	Y35	Z35	X36	Y36	Z36	X37	Y37	Z37	X38	Y38	Z38	X39	Y39	Z39	X40	Y40	Z40	X41	Y41	Z41	X42	Y42	Z42	X43	Y43	Z43	X44	Y44	Z44	X45	Y45	Z45	X46	Y46	Z46	X47	Y47	Z47	X48	Y48	Z48	X49	Y49	Z49	X50	Y50	Z50	X51	Y51	Z51	X52	Y52	Z52	

1	0	303.1291809082032	859.3454589843755	-137.7674102783204	231.2341308593751	888.7280883789067	-320.6437377929689	142.5168609619141	885.8996582031255	-323.6206970214845	59.21780014038089	854.327270507813	-149.1858825683594	367.0333557128907	777.248657226563	-207.0999450683595	350.6353759765626	445.2126159667971	-76.24162292480472	237.6538696289064	442.5825500488284	-42.00862884521486	356.9780273437501	379.8039855957032	-72.88317871093753	317.6020507812501	387.6078796386721	-2.983222723007203	335.5860290527345	74.47373962402347	38.23862075805665	252.2762603759767	97.8616561889649	70.95169067382815	286.3875732421876	18.79084968566895	23.4292392730713	284.8948364257814	99.62875366210943	185.3549346923829	343.644744873047	105.2583312988282	180.2540130615235	375.1552124023439	67.81568908691409	142.1962432861329	13.9812126159668	759.5359497070315	-251.1883239746095	75.3372497558594	413.3150329589846	-282.8467407226564	196.2046508789064	409.4491271972659	-277.6334533691407	75.63804626464847	350.4971923828126	-313.5287475585939	133.2637786865235	334.6341857910157	-261.0886840820314	137.4347076416016	67.76211547851565	-445.1834106445315	225.8353881835939	80.42485046386722	-410.8590393066409	193.2269592285157	31.31333351135255	-494.4808654785159	211.8230438232423	17.53872108459473	-310.9016723632814	148.8953857421876	31.33241844177248	-301.0727539062501	100.8656616210938	20.73229789733887	-361.5921630859376	197.9901580810548	1357.292602539063	-297.719451904297	194.1817474365236	1122.432983398438	-362.4316406250001	191.8447265625001	1125.546508789063	-131.0570831298829	196.3738555908204	1286.962524414063	-172.4185180664063	286.5177001953126	1159.305786132813	-367.8466796875001	282.7965087890626	1290.814086914063	-345.6578674316407	389.6720275878909	1284.777587890625	-272.8855285644532	376.5415039062501	1296.000854492188	-232.1975708007814	445.3400878906252	1012.586303710938	-285.4577941894532	367.0198669433595	982.5208129882817	-304.7080383300782	415.5845642089846	979.164428710938	-315.959197998047	409.9424438476565	787.231323242188	-178.7185363769532	473.2568054199221	779.3908691406255	-230.9745483398439	419.4728698730471	705.4038696289065	-145.803451538086	473.3366699218752	700.6904296875002	-233.1842041015626	82.32875823974612	1169.615234375	-372.2554931640626	108.2495498657227	1292.451416015625	-341.5310668945314	3.432769060134889	1292.075073242188	-266.592987060547	14.2484474182129	1294.76904296875	-217.8231353759767	-63.48126983642581	993.8306274414067	-271.3106689453126	11.38692665100098	977.5440063476567	-300.765594482422	-34.7006301879883	969.9417114257817	-303.4729003906251	-30.97587966918947	788.078491210938	-168.2436065673829	-95.66946411132815	784.940063476563	-218.6540832519532	-49.18177795410159	703.417175292969	-132.0277099609376	-98.03003692626959	705.2453613281252	-222.3517150878907	
2	0.01	303.9412231445314	858.4607543945317	-133.8489685058594	232.5443115234376	888.5193481445317	-316.811492919922	143.8376159667969	885.8596191406255	-320.0389709472657	60.01570129394534	853.961303710938	-145.9883270263672	367.8435363769532	776.3169555664067	-202.946746826172	351.1064758300782	443.8820495605471	-74.50795745849612	238.1540679931642	441.1897888183596	-40.37588119506837	357.4041442871095	378.4080200195314	-71.4463806152344	317.9785766601564	385.9761962890627	-1.546043395996095	335.735565185547	72.72557067871097	38.6527786254883	252.3970947265626	96.05583953857428	71.35939788818362	286.4208984375001	17.01658630371094	23.63180732727051	284.9899902343751	97.36117553710943	185.8639373779297	343.8625793457032	103.0266113281251	180.7319946289063	375.285369873047	65.68171691894534	142.5708770751954	14.88903331756593	759.640563964844	-248.4893493652345	75.66529846191409	413.3806457519534	-281.3179626464845	196.5234375000001	409.2473754882815	-275.9189453125001	75.88974761962893	350.6824951171876	-312.2166137695314	133.4479980468751	334.5184936523439	-259.7758789062501	137.3182678222657	68.343376159668	-444.9265747070315	225.7724456787111	80.82867431640628	-410.6083679199221	193.0940856933595	32.1195411682129	-494.4215087890627	211.7174835205079	17.56790161132813	-310.9395751953126	148.8324890136719	31.30855369567873	-301.0067443847657	100.8477401733399	20.7594108581543	-361.546844482422	199.9266204833986	1356.871826171875	-293.7980041503907	196.0300903320314	1122.060302734375	-358.4604797363282	193.1323089599611	1125.153686523438	-127.1354675292969	197.9663085937501	1286.574829101563	-168.4661254882813	288.3174743652345	1158.798461914063	-363.7307434082032	284.7605590820314	1290.332763671875	-341.5147705078126	391.4651184082034	1284.137817382813	-268.5490112304689	378.2918701171876	1295.356201171875	-227.8549652099611	446.6997680664065	1011.913879394532	-281.436737060547	368.3789978027345	982.0387573242192	-300.9279785156251	416.9372253417971	978.6616821289067	-312.0801086425782	411.0309143066409	786.028198242188	-175.7324829101563	474.2587585449221	778.522827148438	-227.8572540283204	420.1969299316409	704.2073364257815	-143.1483154296876	474.2496643066409	699.8134765625002	-230.4090881347657	84.266960144043	1169.380981445313	-368.6024475097657	110.2302780151368	1292.16943359375	-337.7757263183595	5.240382671356203	1291.920166015625	-263.093231201172	15.93313789367676	1294.56103515625	-214.2775268554689	-62.01923751831058	993.8069458007817	-268.3005676269532	12.87352085113526	977.5056152343755	-297.7092590332032	-33.22071838378908	969.975463867188	-300.4923400878907	-29.94213294982912	787.7443237304692	-165.7660675048829	-94.59345245361331	784.848999023438	-216.2496337890626	-48.33094787597659	703.0073852539065	-129.8008270263672	-97.05945587158209	705.1614990234377	-220.1953125000001	
3	0.02	304.773651123047	857.603393554688	-129.8231506347657	233.8820037841798	888.3406372070317	-312.882293701172	145.1874694824219	885.8347778320317	-316.3456115722657	60.84737777709964	853.6019897460942	-142.6810150146485	368.6972656250001	775.4319458007817	-198.6550903320314	351.6219787597657	442.559753417969	-72.80863189697268	238.6770324707032	439.7659606933596	-38.85991668701173	357.8735961914064	377.0198669433595	-70.06398010253909	318.3770141601564	384.3448486328127	-0.1587918102741242	335.9105529785157	70.99798583984378	39.00158691406251	252.523651123047	94.23902130126956	71.67911529541018	286.4450988769532	15.32244777679444	23.66389083862305	285.1157836914064	94.95491790771487	186.3401031494141	344.103973388672	100.6570358276368	181.1647338867188	375.435760498047	63.45948410034183	142.8578338623047	15.82677364349366	759.7416992187502	-245.6690368652345	76.01463317871097	413.4719543457034	-279.7317199707032	196.849090576172	409.055358886719	-274.1319580078126	76.15660095214847	350.9029235839845	-310.8746948242189	133.6494293212891	334.4235229492189	-258.4169006347657	137.1923370361329	68.97395324707034	-444.6552734375002	225.7096405029298	81.271842956543	-410.3334045410159	192.9558563232423	32.98592758178712	-494.3441162109377	211.6014099121095	17.59861183166505	-310.9725952148439	148.7720184326172	31.29059791564943	-300.9360656738282	100.834098815918	20.7921485900879	-361.4957580566407	201.9051055908204	1356.464233398438	-289.7665100097657	197.917938232422	1121.706665039063	-354.3807678222657	194.4654693603517	1124.773071289063	-123.1060791015626	199.6046447753907	1286.196655273438	-164.4051055908204	290.1532287597657	1158.301513671875	-359.5089111328126	286.764129638672	1289.8642578125	-337.267547607422	393.3016357421877	1283.502807617188	-264.1147460937501	380.0861206054689	1294.711303710938	-223.3984832763673	448.0931396484377	1011.244934082032	-277.3265991210939	369.7719116210939	981.5610961914067	-297.0482482910157	418.3207702636721	978.1691894531255	-308.107879638672	412.170593261719	784.8151245117192	-172.6849365234376	475.2998962402346	777.6621093750005	-224.6818389892579	420.981384277344	703.0123291015627	-140.4360656738282	475.2071533203127	698.9429321289065	-227.5776214599611	86.26105499267581	1169.15283203125	-364.8444213867189	112.2585906982422	1291.902954101563	-333.9122009277345	7.093639850616459	1291.76953125	-259.481414794922	17.66395950317384	1294.358520507813	-210.6205596923829	-60.52622222900393	993.794067382813	-265.1835327148439	14.38278198242188	977.476440429688	-294.5573730468751	-31.71689987182619	970.0199584960942	-297.4061279296876	-28.88380432128908	787.4126586914067	-163.2077941894532	-93.49642181396487	784.766235351563	-213.7584228515626	-47.46160125732423	702.598327636719	-127.5043182373047	-96.07671356201178	705.0869750976565	-217.9606475830079	
4	0.03	305.6277465820314	856.7954711914067	-125.7010040283204	235.2392425537111	888.202270507813	-308.8680725097657	146.5584106445313	885.8295288085942	-312.5459594726564	61.7179985046387	853.2543334960942	-139.2630157470704	369.5958862304689	774.621948242188	-194.2577972412111	352.1881713867189	441.269470214844	-71.13946533203128	239.2306671142579	438.3356933593752	-37.46895217895509	358.3919677734376	375.6631774902345	-68.72377014160159	318.804656982422	382.7484130859376	1.19297480583191	336.115936279297	69.33628082275393	39.35343551635744	252.6622161865236	92.45874786376956	71.98150634765628	286.4571838378907	13.78361892700196	23.58692359924317	285.2893066406251	92.4423522949219	186.8580627441407	344.3793029785157	98.17409515380865	181.6250305175782	375.6130981445314	61.17695999145511	143.1203918457032	16.79375839233399	759.836120605469	-242.7198181152345	76.38845825195315	413.5915527343752	-278.0748291015626	197.1854705810548	408.8770141601565	-272.2636108398439	76.44118499755862	351.1608886718751	-309.4929504394532	133.8731994628907	334.3497619628907	-257.0034484863282	137.0562438964844	69.65947723388675	-444.3642272949221	225.6446990966798	81.7607345581055	-410.0289306640627	192.8091583251954	33.919979095459	-494.2450256347659	211.4793548583986	17.62978172302247	-310.9996032714845	148.7152404785157	31.2775287628174	-300.8606872558595	100.8255004882813	20.83057594299317	-361.4375610351564	203.9246215820314	1356.079467773438	-285.6207580566407	199.8354644775392	1121.384521484375	-350.196502685547	195.8459320068361	1124.411499023438	-118.9710769653321	201.2892303466798	1285.835327148438	-160.2349090576172	292.024139404297	1157.825805664063	-355.1825256347657	288.8074645996095	1289.419921875	-332.9149475097657	395.1824951171877	1282.87890625	-259.580535888672	381.923065185547	1294.069702148438	-218.8244018554689	449.5202636718752	1010.585083007813	-273.1221313476564	371.1978149414064	981.0930786132817	-293.0620422363282	419.735290527344	977.6925659179692	-304.0364685058595	413.357849121094	783.6049804687505	-169.5674438476563	476.3808898925784	776.8125000000005	-221.4448699951173	421.8303527832034	701.823425292969	-137.6622314453126	476.209411621094	698.0845336914065	-224.6869354248048	88.30970764160159	1168.942138671875	-360.9848632812501	114.3340530395508	1291.665649414063	-329.9418945312501	8.991757392883304	1291.632080078125	-255.7581024169923	19.43916320800782	1294.169799804688	-206.8516387939454	-58.99813079833987	993.7973022460942	-261.9547424316407	15.92009735107423	977.461303710938	-291.3023681640626	-30.18356323242189	970.0811157226567	-294.2091369628907	-27.79738044738771	787.086303710938	-160.5644531250001	-92.37522888183597	784.6976928710942	-211.1775360107423	-46.57429122924806	702.195251464844	-125.1361465454102	-95.08034515380862	705.0288085937502	-215.6444854736329	
